<?xml version="1.0" standalone="no"?>
<!DOCTYPE svg PUBLIC "-//W3C//DTD SVG 20010904//EN"
 "http://www.w3.org/TR/2001/REC-SVG-20010904/DTD/svg10.dtd">
<svg version="1.0" xmlns="http://www.w3.org/2000/svg"
 width="400.000000pt" height="400.000000pt" viewBox="0 0 400.000000 400.000000"
 preserveAspectRatio="xMidYMid meet">
<metadata>
Created by potrace 1.11, written by Peter Selinger 2001-2013
</metadata>
<g transform="translate(0.000000,400.000000) scale(0.100000,-0.100000)"
fill="#000000" stroke="none">
<path d="M1941 3459 c-12 -13 -22 -32 -22 -43 -6 -80 17 -125 70 -139 20 -5
35 -16 38 -28 12 -44 19 -13 17 78 -2 77 -6 101 -22 122 -25 34 -55 38 -81 10z"/>
<path d="M2536 3448 c19 -146 55 -228 140 -326 36 -42 132 -111 203 -147 58
-29 227 -76 270 -74 14 0 -6 9 -46 19 -174 45 -299 144 -373 295 -39 77 -67
180 -65 238 1 27 1 27 -66 27 l-67 0 4 -32z"/>
<path d="M3869 3453 c-5 -175 -103 -352 -246 -445 -83 -54 -129 -74 -213 -93
l-65 -15 63 6 c140 12 309 87 414 184 101 92 159 207 172 338 l5 52 -64 0
c-64 0 -65 0 -66 -27z"/>
<path d="M2022 3183 c-7 -21 -32 -69 -57 -108 -25 -38 -46 -81 -47 -95 -5 -81
-2 -2427 3 -2424 4 2 33 70 66 151 l60 148 -2 1177 c0 648 -3 1180 -6 1183 -3
3 -11 -12 -17 -32z"/>
<path d="M3188 2898 c5 -5 16 -8 23 -6 8 3 3 7 -10 11 -17 4 -21 3 -13 -5z"/>
<path d="M3258 2893 c18 -2 45 -2 60 0 15 2 0 4 -33 4 -33 0 -45 -2 -27 -4z"/>
<path d="M597 1109 c-334 -49 -583 -276 -591 -539 l-1 -35 62 -3 63 -3 0 31
c0 57 32 175 67 245 42 82 133 177 213 222 64 36 168 73 208 74 15 0 36 4 47
9 25 11 9 10 -68 -1z"/>
<path d="M708 1113 c12 -2 30 -2 40 0 9 3 -1 5 -23 4 -22 0 -30 -2 -17 -4z"/>
<path d="M771 1116 c4 -5 26 -9 101 -20 84 -13 202 -72 279 -141 105 -93 172
-232 182 -375 l4 -45 65 -3 66 -3 -3 28 c-23 270 -209 461 -520 537 -61 14
-182 30 -174 22z"/>
</g>
</svg>
